<?xml version="1.0" standalone="no"?>
<!DOCTYPE svg PUBLIC "-//W3C//DTD SVG 20010904//EN"
 "http://www.w3.org/TR/2001/REC-SVG-20010904/DTD/svg10.dtd">
<svg version="1.0" xmlns="http://www.w3.org/2000/svg"
 width="74.000000pt" height="74.000000pt" viewBox="0 0 74.000000 74.000000"
 preserveAspectRatio="xMidYMid meet">
<metadata>
Created by potrace 1.14, written by Peter Selinger 2001-2017
</metadata>
<g transform="translate(0.000000,74.000000) scale(0.100000,-0.100000)"
fill="#000000" stroke="none">
<path d="M171 606 c-6 -7 -10 -30 -9 -52 0 -21 -2 -51 -5 -66 -3 -15 -3 -30 1
-32 9 -6 8 -78 -2 -94 -4 -7 -3 -12 2 -12 7 0 8 -32 2 -50 -3 -9 -1 -74 4 -95
2 -11 5 -27 5 -35 1 -13 32 -15 219 -14 119 0 222 1 228 2 16 3 14 129 -2 143
-9 8 -18 8 -26 2 -8 -6 -25 -7 -44 -2 -26 8 -30 13 -32 48 -2 22 1 42 6 45 17
10 4 68 -20 84 -12 9 -25 17 -28 18 -21 4 -100 47 -100 54 0 5 -9 7 -20 5 -11
-2 -18 0 -15 6 4 5 -3 9 -15 9 -12 0 -34 7 -50 15 -17 9 -30 13 -30 9 0 -4 -6
-2 -12 3 -24 18 -47 22 -57 9z"/>
</g>
</svg>
